<mxfile host="app.diagrams.net" modified="2024-05-06T14:55:17.381Z" agent="Mozilla/5.0 (Windows NT 10.0; Win64; x64) AppleWebKit/537.36 (KHTML, like Gecko) Chrome/124.0.0.0 Safari/537.36" version="24.3.0" etag="4h2WopgzwQQYiKZCOReU" type="github">
  <diagram name="Pagina-1" id="xuB_tlGPCjzqCckC500r">
    <mxGraphModel>
      <root>
        <mxCell id="0" />
        <mxCell id="1" parent="0" />
      </root>
    </mxGraphModel>
  </diagram>
</mxfile>
